<svg width="94" height="186" viewBox="0 0 94 186" fill="none" xmlns="http://www.w3.org/2000/svg">
<path d="M86.1818 60H74.9091C74.2424 56.7576 73.0758 53.9091 71.4091 51.4545C69.7727 49 67.7727 46.9394 65.4091 45.2727C63.0758 43.5758 60.4848 42.303 57.6364 41.4545C54.7879 40.6061 51.8182 40.1818 48.7273 40.1818C43.0909 40.1818 37.9848 41.6061 33.4091 44.4545C28.8636 47.303 25.2424 51.5 22.5455 57.0455C19.8788 62.5909 18.5455 69.3939 18.5455 77.4545C18.5455 85.5151 19.8788 92.3182 22.5455 97.8636C25.2424 103.409 28.8636 107.606 33.4091 110.455C37.9848 113.303 43.0909 114.727 48.7273 114.727C51.8182 114.727 54.7879 114.303 57.6364 113.455C60.4848 112.606 63.0758 111.348 65.4091 109.682C67.7727 107.985 69.7727 105.909 71.4091 103.455C73.0758 100.97 74.2424 98.1212 74.9091 94.9091H86.1818C85.3333 99.6667 83.7879 103.924 81.5455 107.682C79.303 111.439 76.5152 114.636 73.1818 117.273C69.8485 119.879 66.1061 121.864 61.9545 123.227C57.8333 124.591 53.4242 125.273 48.7273 125.273C40.7879 125.273 33.7273 123.333 27.5455 119.455C21.3636 115.576 16.5 110.061 12.9545 102.909C9.40909 95.7576 7.63636 87.2727 7.63636 77.4545C7.63636 67.6364 9.40909 59.1515 12.9545 52C16.5 44.8485 21.3636 39.3333 27.5455 35.4545C33.7273 31.5758 40.7879 29.6364 48.7273 29.6364C53.4242 29.6364 57.8333 30.3182 61.9545 31.6818C66.1061 33.0455 69.8485 35.0455 73.1818 37.6818C76.5152 40.2879 79.303 43.4697 81.5455 47.2273C83.7879 50.9545 85.3333 55.2121 86.1818 60Z" fill="black"/>
<path d="M86.1818 91H74.9091C74.2424 87.7576 73.0758 84.9091 71.4091 82.4545C69.7727 80 67.7727 77.9394 65.4091 76.2727C63.0758 74.5758 60.4848 73.303 57.6364 72.4545C54.7879 71.6061 51.8182 71.1818 48.7273 71.1818C43.0909 71.1818 37.9848 72.6061 33.4091 75.4545C28.8636 78.303 25.2424 82.5 22.5455 88.0455C19.8788 93.5909 18.5455 100.394 18.5455 108.455C18.5455 116.515 19.8788 123.318 22.5455 128.864C25.2424 134.409 28.8636 138.606 33.4091 141.455C37.9848 144.303 43.0909 145.727 48.7273 145.727C51.8182 145.727 54.7879 145.303 57.6364 144.455C60.4848 143.606 63.0758 142.348 65.4091 140.682C67.7727 138.985 69.7727 136.909 71.4091 134.455C73.0758 131.97 74.2424 129.121 74.9091 125.909H86.1818C85.3333 130.667 83.7879 134.924 81.5455 138.682C79.303 142.439 76.5152 145.636 73.1818 148.273C69.8485 150.879 66.1061 152.864 61.9545 154.227C57.8333 155.591 53.4242 156.273 48.7273 156.273C40.7879 156.273 33.7273 154.333 27.5455 150.455C21.3636 146.576 16.5 141.061 12.9545 133.909C9.40909 126.758 7.63636 118.273 7.63636 108.455C7.63636 98.6364 9.40909 90.1515 12.9545 83C16.5 75.8485 21.3636 70.3333 27.5455 66.4545C33.7273 62.5758 40.7879 60.6364 48.7273 60.6364C53.4242 60.6364 57.8333 61.3182 61.9545 62.6818C66.1061 64.0455 69.8485 66.0455 73.1818 68.6818C76.5152 71.2879 79.303 74.4697 81.5455 78.2273C83.7879 81.9545 85.3333 86.2121 86.1818 91Z" fill="#F9802D"/>
</svg>
